<svg width="113" height="44" viewBox="0 0 113 44" fill="none" xmlns="http://www.w3.org/2000/svg">
<path fill-rule="evenodd" clip-rule="evenodd" d="M0.604614 36.6668L10.6153 22L0.604614 7.33325H7.89424L17.905 22L7.89424 36.6668H0.604614Z" fill="#E32E25"/>
<path fill-rule="evenodd" clip-rule="evenodd" d="M26.1188 0H18.829V44H26.1188V0ZM27.0423 22L28.7203 19.5415L31.656 15.2403L33.6854 12.2672H33.6854V12.2671L34.5918 10.9392L36.6211 7.96611H36.6211V7.96599L37.053 7.33324H44.3426L37.6063 17.2026H37.6063V17.2027L34.6706 21.5037H34.6706V21.5038L34.3319 22L44.3426 36.6668H37.053L35.7542 34.7639V34.7638H35.7541L32.8185 30.4628V30.4627H32.8184L29.8828 26.1617V26.1616H29.8827L27.0423 22Z" fill="url(#paint0_linear)"/>
<path fill-rule="evenodd" clip-rule="evenodd" d="M53.3372 20.4701H51.1423V29.2966H53.3372V25.3574L56.0259 29.2966H58.4276L55.4155 24.8832L58.4276 20.4701H56.0259L53.3372 24.4089V20.4701ZM53.8317 7.2943H51.1423L54.5152 12.2358L51.1423 17.1772H53.8317L56.8421 12.7666V17.1772H59.2999V12.7666L62.3104 17.1772H64.9998L61.6269 12.2358L64.9998 7.2943H62.3104L59.2999 11.7048V7.2943H56.8421V11.7048L53.8317 7.2943ZM68.3176 7.2943V12.3686L68.2983 13.4039L71.7516 7.2943H74.4562V17.1772H71.9983V12.0897L72.016 11.1641L68.5625 17.1772H65.8599V7.2943H68.3176ZM84.2198 7.2943V17.1772H81.7621V9.52794H79.9032V12.3393C79.9032 14.5233 79.6937 17.2703 76.9184 17.2703C76.5027 17.26 76.1291 17.1924 75.7158 17.1419L75.8245 15.1166C76.1353 15.1602 76.3285 15.18 76.6016 15.183C77.3804 15.183 77.5641 14.1172 77.5641 12.666V7.2943H84.2198ZM90.3123 7.18806C91.6096 7.18806 92.7807 7.58725 93.7382 8.48239C94.7882 9.46349 95.132 10.8361 95.132 12.2358C95.132 13.634 94.789 15.006 93.7371 15.9837C92.7787 16.8745 91.6068 17.2701 90.3123 17.2701C89.018 17.2701 87.8459 16.8745 86.8878 15.9837C85.8356 15.0062 85.4926 13.634 85.4926 12.2358C85.4926 10.8357 85.8364 9.46349 86.8866 8.48239C87.8441 7.58725 89.0151 7.18806 90.3123 7.18806ZM90.3123 9.10256C89.8148 9.10256 89.3833 9.2233 88.9969 9.55232C88.1665 10.2615 88.056 11.2062 88.056 12.2358C88.056 13.2641 88.1667 14.2114 88.9969 14.9191C89.3827 15.2484 89.8152 15.3689 90.3123 15.3689C90.8094 15.3689 91.2419 15.2484 91.6279 14.9191C92.4581 14.2116 92.5687 13.2637 92.5687 12.2358C92.5687 11.2062 92.4583 10.2613 91.6276 9.55232C91.2421 9.22308 90.8092 9.10256 90.3123 9.10256ZM98.8625 7.2943V12.3686L98.8432 13.4039L102.297 7.2943H105.001V17.1772H102.543V12.0897L102.561 11.1641L99.1072 17.1772H96.4048V7.2943H98.8625ZM103.82 4.62744C103.545 5.31228 103.319 5.75029 102.693 6.15842C102.198 6.48204 101.595 6.60834 101.01 6.60834C100.416 6.60834 99.8396 6.49137 99.3387 6.16376C98.6929 5.74018 98.4824 5.342 98.2019 4.62682L99.6806 3.83203C99.9485 4.5026 100.144 4.81336 101.01 4.81336C101.897 4.81336 102.074 4.49625 102.34 3.83203L103.82 4.62744ZM105.001 20.4701V29.2966H102.806V22.4647H101.146V24.9759C101.146 26.9263 100.959 29.3794 98.4803 29.3794C98.1089 29.3705 97.7753 29.31 97.4061 29.2648L97.5032 27.4562C97.781 27.495 97.9534 27.5129 98.1974 27.5152C98.8929 27.5152 99.057 26.5637 99.057 25.2676V20.4701H105.001ZM92.7466 22.2738L91.7995 25.7276H93.6901L92.7466 22.2738ZM91.3434 27.4114L90.8283 29.2966H88.5L91.2986 20.4701H94.1948L96.9931 29.2966H94.6651L94.15 27.4114H91.3434ZM88.9749 20.4701V22.4647H86.5934V29.2966H84.3986V22.4647H82.0169V20.4701H88.9749ZM78.0758 20.4701C78.7901 20.4701 79.6342 20.5647 80.2346 20.9869C81.0593 21.5673 81.4831 22.2728 81.5072 23.2821C81.5306 24.209 81.0209 25.2 80.2426 25.7054C79.6941 26.0616 79.026 26.1772 78.3825 26.1772H77.57V29.2966H75.3749V20.4701H78.0758ZM77.57 24.3487H78.0758C78.7257 24.3487 79.2185 23.9913 79.2185 23.2821C79.2185 22.5569 78.7088 22.2988 78.0758 22.2988H77.57V24.3487ZM70.3539 22.2738L69.4066 25.7276H71.2972L70.3539 22.2738ZM68.9502 27.4114L68.4354 29.2966H66.1073L68.9057 20.4701H71.8018L74.6 29.2966H72.2721L71.7573 27.4114H68.9502ZM59.6423 20.4701H62.3542C63.0796 20.4701 63.8932 20.5994 64.4992 21.0226C65.0519 21.4087 65.3616 21.9924 65.3616 22.7838C65.3616 23.5517 65.0899 24.2069 64.4505 24.6493C64.7357 24.7792 64.9908 24.9667 65.2051 25.1952C65.5614 25.578 65.7255 26.0545 65.7479 26.5724C65.7748 27.2015 65.6262 27.7636 65.205 28.2453C64.4135 29.1503 63.3941 29.2966 62.248 29.2966H59.382V20.4701H59.6423ZM61.5771 25.6672V27.4678H62.248C62.8408 27.4678 63.4613 27.2685 63.4613 26.5674C63.4613 25.8333 62.8493 25.6672 62.248 25.6672H61.5771ZM61.5771 22.2988V23.8387H62.13C62.6545 23.8387 63.1547 23.628 63.1547 23.0689C63.1547 22.4433 62.6085 22.2988 62.0592 22.2988H61.5771Z" fill="#1E5933"/>
<path fill-rule="evenodd" clip-rule="evenodd" d="M53.6723 33.7615L53.6268 34.3176C53.5517 34.2874 53.4756 34.2667 53.3984 34.255C53.3214 34.2438 53.2396 34.2381 53.1529 34.2381C52.8709 34.2381 52.6493 34.3327 52.4875 34.5221C52.3258 34.7111 52.2448 34.9398 52.2448 35.2086C52.2448 35.5 52.3276 35.7309 52.4931 35.9009C52.6585 36.071 52.8617 36.1562 53.102 36.1562C53.1813 36.1562 53.2573 36.1495 53.3308 36.1364C53.4041 36.1231 53.4689 36.1091 53.5255 36.0938C53.5667 36.0825 53.6015 36.071 53.6299 36.0599C53.6579 36.0484 53.6776 36.0409 53.689 36.0371L53.7172 36.5988C53.5517 36.648 53.4021 36.6783 53.2688 36.6896C53.1349 36.7009 53.0345 36.7069 52.9669 36.7069C52.5005 36.7069 52.1508 36.5838 51.9175 36.3378C51.6845 36.092 51.5379 35.8197 51.4776 35.5208C51.4665 35.4601 51.4579 35.4006 51.4522 35.342C51.4466 35.2834 51.4439 35.2257 51.4439 35.169C51.4439 35.1349 51.4447 35.1015 51.4466 35.0696C51.4484 35.0374 51.4514 35.0045 51.4551 34.9701C51.4965 34.6487 51.6423 34.3536 51.8921 34.0849C52.1421 33.8162 52.5193 33.6822 53.0235 33.6822C53.0723 33.6822 53.1212 33.6838 53.17 33.6878C53.2187 33.6914 53.2697 33.6953 53.3223 33.6991C53.3824 33.7066 53.4417 33.7154 53.4999 33.7244C53.5582 33.7339 53.6155 33.7462 53.6723 33.7615ZM54.0721 33.7274H56.6672V34.2948H55.7533V36.667H54.986V34.2948H54.0721V33.7274ZM57.8236 37.8814H57.0562V33.7274H57.7277V34.2381H57.7387C57.8329 34.0754 57.961 33.9421 58.1225 33.838C58.2843 33.7342 58.4742 33.6822 58.6923 33.6822C59.0647 33.6822 59.3626 33.8085 59.5864 34.0622C59.81 34.3153 59.9221 34.694 59.9221 35.1971C59.9221 35.6815 59.8197 36.0373 59.6146 36.2642C59.4099 36.491 59.1853 36.6312 58.9403 36.6783C58.8919 36.6876 58.8438 36.6926 58.7965 36.6981C58.7497 36.7039 58.7035 36.7069 58.6584 36.7069C58.4438 36.7069 58.2719 36.6648 58.142 36.582C58.0128 36.4989 57.9125 36.4036 57.8405 36.2982C57.8374 36.2938 57.8329 36.2896 57.8292 36.2841C57.8254 36.2781 57.8214 36.2736 57.8179 36.2698H57.8065L57.8236 36.7523V37.8814ZM57.8236 35.1971C57.8236 35.4847 57.8875 35.7071 58.0151 35.8639C58.143 36.0209 58.2953 36.0997 58.4722 36.0997C58.649 36.0997 58.8017 36.0209 58.9291 35.8639C59.057 35.7071 59.121 35.4847 59.121 35.1971C59.121 34.9096 59.057 34.6871 58.9291 34.5305C58.8017 34.3734 58.649 34.2948 58.4722 34.2948C58.2953 34.2948 58.143 34.3734 58.0151 34.5305C57.8875 34.6871 57.8236 34.9096 57.8236 35.1971ZM60.3844 35.1971C60.3844 34.7469 60.517 34.3815 60.7818 34.102C61.0468 33.8221 61.4184 33.6822 61.896 33.6822C62.3738 33.6822 62.7442 33.8221 63.0072 34.102C63.2702 34.382 63.4024 34.7469 63.4024 35.1971C63.4024 35.6476 63.2702 36.0115 63.0072 36.2896C62.7442 36.5673 62.3738 36.7069 61.896 36.7069C61.4184 36.7069 61.0468 36.5665 60.7818 36.2868C60.517 36.0074 60.3844 35.6437 60.3844 35.1971ZM61.1853 35.1971C61.1853 35.5075 61.2552 35.7447 61.3941 35.9095C61.5332 36.0738 61.7004 36.1562 61.896 36.1562C62.0877 36.1562 62.2534 36.0749 62.3925 35.9124C62.5316 35.7499 62.6013 35.511 62.6013 35.1971C62.6013 34.883 62.5316 34.6446 62.3925 34.4822C62.2534 34.3192 62.0877 34.2381 61.896 34.2381C61.7004 34.2381 61.5332 34.3192 61.3941 34.4822C61.2551 34.6449 61.1853 34.883 61.1853 35.1971ZM63.8311 33.7274H64.5986V35.271L64.5757 35.7989H64.5872L65.8452 33.7274H66.7025V36.667H65.9354V35.1462L65.9581 34.5957H65.9409L64.649 36.667H63.8311V33.7274ZM69.6305 36.667H68.9026L68.3271 34.9418L68.1805 34.4651H68.1522L68.1693 34.9928V36.667H67.4019V33.7274H68.4738L69.0774 35.4074L69.241 35.9293H69.292L69.4555 35.4074L70.059 33.7274H71.1308V36.667H70.3636V34.9928L70.3805 34.4651H70.3524L70.2058 34.9418L69.6305 36.667ZM73.3326 33.7274H74.7654C74.8217 33.7274 74.8885 33.731 74.9628 33.7357C75.0373 33.7406 75.1182 33.7527 75.1998 33.7728C75.3427 33.8077 75.4741 33.8796 75.5917 33.9769C75.7094 34.0744 75.7695 34.2324 75.7695 34.4481C75.7695 34.6449 75.7131 34.7974 75.6031 34.9021C75.493 35.007 75.3671 35.0763 75.2282 35.1063V35.1235C75.416 35.1384 75.5756 35.2074 75.7046 35.3275C75.8337 35.448 75.8993 35.6211 75.8993 35.8443C75.8993 36.0865 75.8063 36.2848 75.6229 36.4373C75.4396 36.5895 75.1659 36.667 74.8107 36.667H73.3326V33.7274ZM74.0997 35.3844V36.1562H74.5904C74.5942 36.1562 74.5971 36.1562 74.5989 36.1562C74.6007 36.1562 74.6038 36.1562 74.6074 36.1562C74.6337 36.1562 74.6679 36.1542 74.7063 36.1533C74.7447 36.1523 74.789 36.1448 74.8332 36.1336C74.9002 36.1162 74.9618 36.0785 75.0164 36.0256C75.071 35.9726 75.0984 35.8876 75.0984 35.7703C75.0984 35.6529 75.0676 35.567 75.0081 35.5123C74.9479 35.4573 74.8807 35.4229 74.8107 35.4074C74.7697 35.3983 74.7266 35.3884 74.6864 35.3872C74.646 35.3864 74.6096 35.3844 74.5849 35.3844H74.0997ZM74.0997 34.2381V34.8736H74.5737C74.5737 34.8736 74.5745 34.8736 74.5762 34.8736C74.5782 34.8736 74.5794 34.8736 74.5794 34.8736C74.6019 34.8736 74.631 34.8718 74.6639 34.8708C74.6968 34.8697 74.7325 34.8627 74.7654 34.8564C74.8247 34.8459 74.8818 34.8168 74.9319 34.7741C74.9818 34.7317 75.0081 34.6582 75.0081 34.5559C75.0081 34.4611 74.9819 34.3904 74.9319 34.3458C74.882 34.3014 74.8269 34.2677 74.7709 34.255C74.7347 34.2469 74.6959 34.2417 74.6612 34.241C74.6263 34.2397 74.5944 34.2381 74.5737 34.2381H74.0997ZM76.5513 34.4822V33.8748C76.6641 33.8297 76.7743 33.7922 76.8781 33.767C76.9821 33.7416 77.0899 33.7168 77.1938 33.7048C77.2643 33.6966 77.3376 33.6914 77.4087 33.6878C77.4798 33.6843 77.5514 33.6822 77.6227 33.6822C78.0327 33.6822 78.3261 33.7514 78.5028 33.8891C78.6793 34.0271 78.7989 34.1801 78.8523 34.3458C78.8787 34.4271 78.8975 34.5129 78.9033 34.5926C78.9095 34.6729 78.9146 34.7497 78.9146 34.8112V36.667H78.1643V36.2355H78.1533C78.1005 36.3417 78.0337 36.427 77.9558 36.4885C77.8778 36.5495 77.7921 36.5972 77.7074 36.6274C77.6182 36.6587 77.5289 36.6844 77.445 36.6926C77.3616 36.7007 77.2917 36.7069 77.2393 36.7069C76.9006 36.7069 76.6537 36.6319 76.5002 36.4829C76.3461 36.3336 76.2516 36.1687 76.2181 35.9917C76.2127 35.963 76.2049 35.9307 76.2041 35.9039C76.2033 35.8763 76.2013 35.8462 76.2013 35.8157C76.2013 35.8082 76.2013 35.8007 76.2013 35.793C76.2013 35.7856 76.2011 35.7754 76.2013 35.7703C76.21 35.54 76.3181 35.3266 76.5146 35.1349C76.7104 34.9434 77.0907 34.8455 77.6511 34.8455C77.6887 34.8455 77.7253 34.8455 77.761 34.8455C77.7967 34.8455 77.8337 34.8439 77.8711 34.8455C77.908 34.847 77.9442 34.851 77.9783 34.851C78.0124 34.851 78.0459 34.851 78.0798 34.851H78.1476L78.1416 34.7262C78.1334 34.5484 78.0654 34.4193 77.936 34.3402C77.8065 34.2612 77.6566 34.2209 77.4873 34.2209C77.3482 34.2209 77.202 34.2392 77.0529 34.2721C76.9037 34.3051 76.7354 34.3763 76.5513 34.4822ZM78.1476 35.3334H78.0177C78.0126 35.3334 78.0038 35.3334 77.9978 35.3334C77.9923 35.3334 77.9876 35.3334 77.984 35.3334C77.9275 35.3334 77.8672 35.3334 77.8034 35.3334C77.7395 35.3334 77.6739 35.3389 77.6116 35.3446C77.455 35.359 77.3074 35.4009 77.1772 35.4639C77.0468 35.5269 76.9796 35.6437 76.9796 35.81C76.9796 35.8139 76.9796 35.8167 76.9796 35.8187C76.9796 35.8204 76.9796 35.8258 76.9796 35.827C76.9807 35.918 77.019 36.0024 77.084 36.077C77.1489 36.1519 77.271 36.1903 77.4475 36.1903C77.6321 36.1903 77.7951 36.1328 77.936 36.0175C78.0766 35.9021 78.1476 35.6983 78.1476 35.4074V35.3334ZM79.5396 33.7274H80.3066V36.0997H81.0573V33.7274H81.8243V36.0997H82.5751V33.7274H83.3422V36.667H79.5396V33.7274ZM83.8834 33.7274H84.7295L85.2768 35.3506L85.4403 35.9124H85.4687L85.6491 35.3275L86.1796 33.7274H86.958L85.7222 37.0244C85.7146 37.0454 85.6994 37.0733 85.6913 37.0985C85.6833 37.1235 85.6692 37.1508 85.6604 37.1721C85.5855 37.3562 85.4701 37.5291 85.3191 37.6831C85.1684 37.8365 84.9026 37.9157 84.5267 37.9157C84.4438 37.9157 84.3644 37.9066 84.2924 37.8929C84.2203 37.8791 84.1484 37.8588 84.0808 37.8361L84.1376 37.2686C84.1863 37.2839 84.2371 37.2985 84.2867 37.3086C84.3362 37.3181 84.3876 37.3253 84.4365 37.3253C84.5793 37.3253 84.6926 37.2993 84.772 37.2513C84.8514 37.2038 84.917 37.1171 84.9669 36.9962L85.0342 36.8317L83.8834 33.7274ZM90.8761 36.667H90.1483L89.573 34.9418L89.4264 34.4651H89.398L89.4151 34.9928V36.667H88.6477V33.7274H89.7196L90.3232 35.4074L90.4868 35.9293H90.5378L90.7014 35.4074L91.3048 33.7274H92.3766V36.667H91.6094V34.9928L91.6266 34.4651H91.5982L91.4516 34.9418L90.8761 36.667ZM95.6991 35.43H93.7078C93.723 35.6416 93.8075 35.8175 93.9562 35.9519C94.1044 36.0865 94.3135 36.1562 94.5767 36.1562C94.6819 36.1562 94.7871 36.1469 94.8868 36.1336C94.9867 36.1202 95.0895 36.093 95.1861 36.0655C95.2363 36.0512 95.2921 36.0313 95.3409 36.0143C95.39 35.9972 95.4416 35.9744 95.4907 35.9519V36.5308C95.4227 36.5572 95.3532 36.582 95.2876 36.5988C95.2218 36.6159 95.1504 36.6394 95.0846 36.6499C94.9849 36.6658 94.8813 36.6785 94.7798 36.6896C94.6785 36.7009 94.5786 36.7069 94.4809 36.7069C94.477 36.7069 94.4742 36.7069 94.4724 36.7069C94.4705 36.7069 94.464 36.7069 94.464 36.7069C94.0764 36.7069 93.718 36.5867 93.3947 36.3633C93.0714 36.1402 92.9069 35.7497 92.9069 35.1971C92.9069 34.7658 93.0414 34.4035 93.3045 34.1161C93.5679 33.8285 93.9184 33.6822 94.3509 33.6822C94.3623 33.6822 94.3747 33.6822 94.3877 33.6822C94.4007 33.6822 94.4182 33.682 94.4299 33.6822C94.7453 33.6929 95.0385 33.8219 95.3015 34.0511C95.565 34.2796 95.6991 34.6866 95.6991 35.2537V35.43ZM93.7078 34.9021H94.9094C94.9168 34.675 94.8568 34.5018 94.7347 34.3886C94.6123 34.2751 94.4675 34.2153 94.3059 34.2153C94.1215 34.2153 93.975 34.2881 93.8713 34.4281C93.7681 34.5682 93.7115 34.7281 93.7078 34.9021ZM96.1166 33.7274H96.8836V34.6639C96.8836 34.675 96.8836 34.695 96.8836 34.7118C96.8836 34.7289 96.8882 34.7495 96.8894 34.7658C96.8955 34.8443 96.9329 34.9212 96.991 34.9874C97.0493 35.0534 97.1717 35.0893 97.352 35.0893C97.4274 35.0893 97.5017 35.0856 97.575 35.0782C97.6483 35.0706 97.7149 35.0577 97.7693 35.0497C97.8124 35.0428 97.8534 35.0354 97.8851 35.0296C97.9171 35.0241 97.937 35.0193 97.9445 35.0155V33.7274H98.7115V36.667H97.9445V35.5828C97.884 35.5945 97.8239 35.605 97.7638 35.6143C97.7037 35.6238 97.6414 35.6307 97.5833 35.6344C97.5212 35.6383 97.4552 35.6492 97.3971 35.6512C97.339 35.6528 97.2769 35.6569 97.2166 35.6569C96.8143 35.6569 96.5408 35.5896 96.3958 35.4554C96.2514 35.3212 96.1609 35.1713 96.1336 35.01C96.1273 34.9711 96.1213 34.9256 96.1196 34.8824C96.1176 34.8389 96.1166 34.7981 96.1166 34.7603V33.7274ZM99.1006 33.7274H101.696V34.2948H100.782V36.667H100.015V34.2948H99.1006V33.7274ZM101.927 33.7274H102.773L103.32 35.3506L103.484 35.9124H103.512L103.692 35.3275L104.223 33.7274H105.001L103.766 37.0244C103.758 37.0442 103.742 37.0737 103.735 37.0985C103.727 37.1227 103.712 37.1516 103.704 37.1721C103.629 37.3558 103.513 37.5299 103.362 37.6831C103.212 37.8358 102.946 37.9157 102.57 37.9157C102.487 37.9157 102.407 37.9058 102.336 37.8929C102.264 37.8796 102.192 37.8588 102.124 37.8361L102.181 37.2686C102.229 37.2839 102.281 37.2991 102.33 37.3086C102.379 37.3175 102.431 37.3253 102.479 37.3253C102.622 37.3253 102.736 37.2987 102.815 37.2513C102.894 37.2045 102.96 37.1171 103.01 36.9962L103.077 36.8317L101.927 33.7274Z" fill="#72A037"/>
<path d="M109.84 3.00485V3.66823H110.102C110.246 3.66823 110.35 3.63254 110.414 3.56119C110.478 3.48984 110.51 3.41354 110.51 3.33269C110.51 3.24959 110.481 3.17408 110.424 3.10632C110.367 3.0385 110.259 3.00485 110.102 3.00485H109.84ZM109.353 2.62549H110.204C110.508 2.62549 110.719 2.68909 110.836 2.81635C110.952 2.94361 111.011 3.09857 111.011 3.28134C111.011 3.44703 110.965 3.5749 110.874 3.66485C110.783 3.75464 110.674 3.8147 110.548 3.84442V3.85116C110.606 3.86526 110.655 3.89358 110.694 3.93622C110.733 3.97904 110.767 4.03573 110.798 4.10647L111.19 5.04222H110.644L110.335 4.27592C110.302 4.19625 110.262 4.13821 110.213 4.10191C110.164 4.06562 110.102 4.04758 110.025 4.04758H109.84V5.04222H109.353V2.62549Z" fill="#1E5933"/>
<path d="M110.066 1.68406C108.914 1.68406 107.976 2.62751 107.976 3.78739C107.976 4.9471 108.914 5.89078 110.066 5.89078C111.219 5.89078 112.157 4.9471 112.157 3.78739C112.157 2.62751 111.219 1.68406 110.066 1.68406ZM110.066 6.34071C108.667 6.34071 107.528 5.19527 107.528 3.78739C107.528 2.37934 108.667 1.23413 110.066 1.23413C111.466 1.23413 112.605 2.37934 112.605 3.78739C112.605 5.19527 111.466 6.34071 110.066 6.34071Z" fill="#1E5933"/>
<defs>
<linearGradient id="paint0_linear" x1="31.5942" y1="44" x2="31.5942" y2="0.00179903" gradientUnits="userSpaceOnUse">
<stop stop-color="#719E37"/>
<stop offset="1" stop-color="#1E5933"/>
</linearGradient>
</defs>
</svg>
